<svg xmlns="http://www.w3.org/2000/svg" width="24" height="24" viewBox="0 0 24 24">
    <g fill="none" fill-rule="evenodd">
        <path fill="none" d="M0 0h24v24H0z"/>
        <path fill="#AAA" stroke="#AAA" stroke-width=".7" d="M7.043 13.815c.866 0 1.144 1.16.375 1.55a.833.833 0 0 1-.75 0c-.77-.389-.492-1.55.375-1.55m9.351-9.29a.715.715 0 0 0-.69-.525c-.947 0-.948 1.422 0 1.422.18 0 .343-.066.468-.174a2.957 2.957 0 0 1 .63 4.786l-4.118 3.81a.718.718 0 0 0-.592 0C7.982 10.04 6.65 9.322 7.088 7.253a2.985 2.985 0 0 1 1.486-1.988c.123.098.279.157.45.157.946 0 .947-1.422 0-1.422a.716.716 0 0 0-.699.552A3.738 3.738 0 0 0 6.354 7.1c-.546 2.577 1.155 3.52 5.318 7.372 0 .287.137.502.341.627V17c0 3.014-4.595 3.014-4.595 0v-.882c1.76-.433 1.445-3.031-.375-3.031-1.821 0-2.135 2.598-.376 3.03v.883c0 3.998 6.096 4 6.096 0v-1.902a.707.707 0 0 0 .342-.627l4.208-3.894c1.902-1.759 1.462-4.903-.919-6.053"/>
    </g>
</svg>
