<svg xmlns="http://www.w3.org/2000/svg" xmlns:xlink="http://www.w3.org/1999/xlink" width="24" height="24" viewBox="0 0 24 24">
    <defs>
        <path id="a" d="M12 14a2.5 2.5 0 1 0 .001-4.999A2.5 2.5 0 0 0 12 14zm0 1.25c-1.669 0-5 .837-5 2.5V19h10v-1.25c0-1.663-3.331-2.5-5-2.5z"/>
    </defs>
    <g fill="none" fill-rule="evenodd">
        <path fill="#FFF" fill-opacity="0" d="M0 0h24v24H0z"/>
        <path fill="#13BB00" fill-rule="nonzero" d="M10 4v1.5H6.564c-.586 0-.71.024-.833.09a.319.319 0 0 0-.141.14c-.066.124-.09.248-.09.834v12.872c0 .586.024.71.09.833a.319.319 0 0 0 .14.141c.124.066.248.09.834.09h10.872c.586 0 .71-.024.833-.09a.319.319 0 0 0 .141-.14c.066-.124.09-.248.09-.834V6.564c0-.586-.024-.71-.09-.833a.319.319 0 0 0-.14-.141c-.124-.066-.248-.09-.834-.09H14V4h3.436c.892 0 1.215.093 1.54.267.327.174.583.43.757.756.174.326.267.65.267 1.54v12.873c0 .892-.093 1.215-.267 1.54-.174.327-.43.583-.756.757-.326.174-.65.267-1.54.267H6.563c-.892 0-1.215-.093-1.54-.267a1.817 1.817 0 0 1-.757-.756c-.174-.326-.267-.65-.267-1.54V6.563c0-.892.093-1.215.267-1.54.174-.327.43-.583.756-.757.326-.174.65-.267 1.54-.267H10zm1.5 2h1V3.5h-1V6zm-.218-4h1.436c.446 0 .607.046.77.134.163.087.291.215.378.378.088.163.134.324.134.77v2.936c0 .446-.046.607-.134.77a.909.909 0 0 1-.378.378c-.163.088-.324.134-.77.134h-1.436c-.446 0-.607-.046-.77-.134a.909.909 0 0 1-.378-.378c-.088-.163-.134-.324-.134-.77V3.282c0-.446.046-.607.134-.77a.909.909 0 0 1 .378-.378c.163-.088.324-.134.77-.134z"/>
        <g fill-rule="nonzero">
            <use fill="#13BB00" fill-opacity="0" fill-rule="evenodd" xlink:href="#a"/>
            <path stroke="#13BB00" stroke-width="1.5" d="M12 13.25a1.75 1.75 0 1 0 .001-3.499A1.75 1.75 0 0 0 12 13.25zm-4.25 5h8.5v-.5c0-.812-2.34-1.75-4.25-1.75-1.91 0-4.25.938-4.25 1.75v.5z"/>
        </g>
    </g>
</svg>
