<svg xmlns="http://www.w3.org/2000/svg" width="48" height="48" viewBox="0 0 48 48">
    <g fill="none" fill-rule="evenodd">
        <g>
            <g>
                <path d="M0 0L48 0 48 48 0 48z"/>
                <path d="M12 12L36 12 36 36 12 36z"/>
                <path fill="#FFF" fill-rule="nonzero" d="M27.864 26.32h-.813l-.288-.277c1.009-1.173 1.616-2.697 1.616-4.353 0-3.695-2.995-6.69-6.69-6.69C17.996 15 15 17.995 15 21.69c0 3.694 2.995 6.69 6.69 6.69 1.656 0 3.18-.608 4.353-1.617l.278.288v.813L31.467 33 33 31.467l-5.136-5.146zm-6.174 0c-2.563 0-4.632-2.068-4.632-4.63 0-2.563 2.069-4.632 4.632-4.632 2.562 0 4.63 2.069 4.63 4.632 0 2.562-2.068 4.63-4.63 4.63z"/>
            </g>
        </g>
    </g>
</svg>
