<svg xmlns="http://www.w3.org/2000/svg" width="48" height="48" viewBox="0 0 48 48">
    <g fill="none" fill-rule="evenodd">
        <path fill="#8F9FBF" fill-opacity="0" d="M12 12h24v24H12z"/>
        <path fill="#585F6D" d="M17.627 18.75h1.746c.206 0 .29.023.371.067a.454.454 0 0 1 .19.189c.043.081.066.165.066.371v.246c0 .206-.023.29-.067.371a.454.454 0 0 1-.189.19c-.081.043-.165.066-.371.066h-1.746c-.206 0-.29-.023-.371-.067a.454.454 0 0 1-.19-.189c-.043-.081-.066-.165-.066-.371v-.246c0-.206.023-.29.067-.371a.454.454 0 0 1 .189-.19c.081-.043.165-.066.371-.066zM21.627 18.75h8.746c.206 0 .29.023.371.067a.454.454 0 0 1 .19.189c.043.081.066.165.066.371v.246c0 .206-.023.29-.067.371a.454.454 0 0 1-.189.19c-.081.043-.165.066-.371.066h-8.746c-.206 0-.29-.023-.371-.067a.454.454 0 0 1-.19-.189c-.043-.081-.066-.165-.066-.371v-.246c0-.206.023-.29.067-.371a.454.454 0 0 1 .189-.19c.081-.043.165-.066.371-.066zM17.627 23.25h1.746c.206 0 .29.023.371.067a.454.454 0 0 1 .19.189c.043.081.066.165.066.371v.246c0 .206-.023.29-.067.371a.454.454 0 0 1-.189.19c-.081.043-.165.066-.371.066h-1.746c-.206 0-.29-.023-.371-.067a.454.454 0 0 1-.19-.189c-.043-.081-.066-.165-.066-.371v-.246c0-.206.023-.29.067-.371a.454.454 0 0 1 .189-.19c.081-.043.165-.066.371-.066zM21.627 23.25h8.746c.206 0 .29.023.371.067a.454.454 0 0 1 .19.189c.043.081.066.165.066.371v.246c0 .206-.023.29-.067.371a.454.454 0 0 1-.189.19c-.081.043-.165.066-.371.066h-8.746c-.206 0-.29-.023-.371-.067a.454.454 0 0 1-.19-.189c-.043-.081-.066-.165-.066-.371v-.246c0-.206.023-.29.067-.371a.454.454 0 0 1 .189-.19c.081-.043.165-.066.371-.066zM17.627 27.75h1.746c.206 0 .29.023.371.067a.454.454 0 0 1 .19.189c.043.081.066.165.066.371v.246c0 .206-.023.29-.067.371a.454.454 0 0 1-.189.19c-.081.043-.165.066-.371.066h-1.746c-.206 0-.29-.023-.371-.067a.454.454 0 0 1-.19-.189c-.043-.081-.066-.165-.066-.371v-.246c0-.206.023-.29.067-.371a.454.454 0 0 1 .189-.19c.081-.043.165-.066.371-.066zM21.627 27.75h8.746c.206 0 .29.023.371.067a.454.454 0 0 1 .19.189c.043.081.066.165.066.371v.246c0 .206-.023.29-.067.371a.454.454 0 0 1-.189.19c-.081.043-.165.066-.371.066h-8.746c-.206 0-.29-.023-.371-.067a.454.454 0 0 1-.19-.189c-.043-.081-.066-.165-.066-.371v-.246c0-.206.023-.29.067-.371a.454.454 0 0 1 .189-.19c.081-.043.165-.066.371-.066z"/>
    </g>
</svg>
